<svg aria-hidden="true" style="position:absolute;width:0;height:0" xmlns="http://www.w3.org/2000/svg" overflow="hidden"><defs><symbol id="icon-chevron-thin-left" viewBox="0 0 20 20"><path d="M13.891 17.418c.268.272.268.709 0 .979s-.701.271-.969 0l-7.83-7.908a.697.697 0 010-.979l7.83-7.908c.268-.27.701-.27.969 0s.268.709 0 .979L6.75 10l7.141 7.418z"/></symbol><symbol id="icon-chevron-thin-right" viewBox="0 0 20 20"><path d="M13.25 10L6.109 2.58a.697.697 0 010-.979.68.68 0 01.969 0l7.83 7.908a.697.697 0 010 .979l-7.83 7.908c-.268.271-.701.27-.969 0s-.268-.707 0-.979L13.25 10z"/></symbol><symbol id="icon-back-in-time" viewBox="0 0 20 20"><path d="M11 1.799c-4.445 0-8.061 3.562-8.169 7.996V10H.459l3.594 3.894L7.547 10H4.875v-.205C4.982 6.492 7.683 3.85 11 3.85c3.386 0 6.131 2.754 6.131 6.15S14.386 16.15 11 16.15a6.099 6.099 0 01-3.627-1.193l-1.406 1.504A8.13 8.13 0 0011 18.199c4.515 0 8.174-3.67 8.174-8.199S15.515 1.799 11 1.799zM10 5v5a1.01 1.01 0 00.293.707l3.2 3.2c.283-.183.55-.389.787-.628L12 11V5h-2z"/></symbol><symbol id="icon-emoji-happy" viewBox="0 0 20 20"><path d="M10 .4A9.6 9.6 0 00.4 10a9.6 9.6 0 1019.2-.001C19.6 4.698 15.301.4 10 .4zm0 17.199A7.6 7.6 0 1110 2.4a7.6 7.6 0 110 15.199zM7.501 9.75C8.329 9.75 9 8.967 9 8s-.672-1.75-1.5-1.75S6 7.033 6 8s.672 1.75 1.501 1.75zm4.999 0c.829 0 1.5-.783 1.5-1.75s-.672-1.75-1.5-1.75S11 7.034 11 8s.672 1.75 1.5 1.75zm1.841 1.586a.756.756 0 00-1.008.32c-.034.066-.869 1.593-3.332 1.593-2.451 0-3.291-1.513-3.333-1.592a.75.75 0 00-1.339.678c.05.099 1.248 2.414 4.672 2.414 3.425 0 4.621-2.316 4.67-2.415a.745.745 0 00-.33-.998z"/></symbol><symbol id="icon-gauge" viewBox="0 0 20 20"><path d="M8.127 13.6c-.689 1.197-.225 2.18.732 2.732.956.553 2.041.465 2.732-.732.689-1.195 5.047-11.865 4.668-12.084S8.817 12.404 8.127 13.6zM10 6c.438 0 .864.037 1.281.109.438-.549.928-1.154 1.405-1.728A9.664 9.664 0 0010 4C4.393 4 0 8.729 0 14.766c0 .371.016.742.049 1.103.049.551.54.955 1.084.908.551-.051.957-.535.908-1.086A10.462 10.462 0 012 14.766C2 9.85 5.514 6 10 6zm7.219 1.25c-.279.75-.574 1.514-.834 2.174C17.4 10.894 18 12.738 18 14.766c0 .316-.015.635-.043.943a1.001 1.001 0 001.992.182c.033-.37.051-.748.051-1.125 0-2.954-1.053-5.59-2.781-7.516z"/></symbol><symbol id="icon-megaphone" viewBox="0 0 20 20"><path d="M17.223 7.03c-1.584-3.686-4.132-6.49-5.421-5.967-2.189.891 1.304 5.164-9.447 9.533-.929.379-1.164 1.888-.775 2.792.388.902 1.658 1.801 2.587 1.424.161-.066.751-.256.751-.256.663.891 1.357.363 1.604.928l1.158 2.66c.219.502.715.967 1.075.83l2.05-.779c.468-.177.579-.596.436-.924-.154-.355-.786-.459-.967-.873-.18-.412-.769-1.738-.938-2.156-.23-.568.259-1.031.97-1.104 4.894-.512 5.809 2.512 7.475 1.834 1.287-.525 1.025-4.259-.558-7.942zm-.551 5.976c-.287.115-2.213-1.402-3.443-4.267-1.231-2.863-1.076-5.48-.79-5.597.286-.115 2.165 1.717 3.395 4.58s1.124 5.167.838 5.284z"/></symbol><symbol id="icon-palette" viewBox="0 0 20 20"><path d="M15.74 2.608c-3.528-1.186-7.066-.961-10.72 1.274C2.167 5.625.302 9.958.917 13.064c.728 3.671 4.351 5.995 9.243 4.651 5.275-1.449 6.549-4.546 6.379-5.334s-2.665-1.652-1.718-3.498c1.188-2.313 3.129-1.149 3.982-1.622.855-.472.539-3.442-3.063-4.653zm-3.646 10.706a1.504 1.504 0 01-1.843-1.059c-.221-.805.248-1.631 1.046-1.849s1.622.254 1.843 1.059a1.501 1.501 0 01-1.046 1.849z"/></symbol><symbol id="icon-scissors" viewBox="0 0 20 20"><path d="M8.38 5.59a3.69 3.69 0 10-3.69 3.69 3.67 3.67 0 002.483-.976L9 9.991l.012.009-.004.003-1.836 1.693a3.665 3.665 0 00-2.482-.976 3.69 3.69 0 103.69 3.69c0-.297-.044-.582-.111-.858l2.844-1.991 4.127 3.065c2.212 1.549 3.76-.663 3.76-.663L8.269 6.448c.066-.276.111-.561.111-.858zm-3.69 1.8a1.8 1.8 0 110-3.6 1.8 1.8 0 010 3.6zm0 8.82a1.8 1.8 0 110-3.6 1.8 1.8 0 010 3.6zM19 6.038s-1.548-2.212-3.76-.663L12.035 7.61l2.354 1.648L19 6.038z"/></symbol><symbol id="icon-facebook" viewBox="0 0 32 32"><path d="M19 6h5V0h-5c-3.86 0-7 3.14-7 7v3H8v6h4v16h6V16h5l1-6h-6V7c0-.542.458-1 1-1z"/></symbol><symbol id="icon-instagram" viewBox="0 0 32 32"><path d="M16 2.881c4.275 0 4.781.019 6.462.094 1.563.069 2.406.331 2.969.55a4.952 4.952 0 011.837 1.194 5.015 5.015 0 011.2 1.838c.219.563.481 1.412.55 2.969.075 1.688.094 2.194.094 6.463s-.019 4.781-.094 6.463c-.069 1.563-.331 2.406-.55 2.969a4.94 4.94 0 01-1.194 1.837 5.02 5.02 0 01-1.837 1.2c-.563.219-1.413.481-2.969.55-1.688.075-2.194.094-6.463.094s-4.781-.019-6.463-.094c-1.563-.069-2.406-.331-2.969-.55a4.952 4.952 0 01-1.838-1.194 5.02 5.02 0 01-1.2-1.837c-.219-.563-.481-1.413-.55-2.969-.075-1.688-.094-2.194-.094-6.463s.019-4.781.094-6.463c.069-1.563.331-2.406.55-2.969a4.964 4.964 0 011.194-1.838 5.015 5.015 0 011.838-1.2c.563-.219 1.412-.481 2.969-.55 1.681-.075 2.188-.094 6.463-.094zM16 0c-4.344 0-4.887.019-6.594.094-1.7.075-2.869.35-3.881.744-1.056.412-1.95.956-2.837 1.85a7.833 7.833 0 00-1.85 2.831C.444 6.538.169 7.7.094 9.4.019 11.113 0 11.656 0 16s.019 4.887.094 6.594c.075 1.7.35 2.869.744 3.881.413 1.056.956 1.95 1.85 2.837a7.82 7.82 0 002.831 1.844c1.019.394 2.181.669 3.881.744 1.706.075 2.25.094 6.594.094s4.888-.019 6.594-.094c1.7-.075 2.869-.35 3.881-.744 1.05-.406 1.944-.956 2.831-1.844s1.438-1.781 1.844-2.831c.394-1.019.669-2.181.744-3.881.075-1.706.094-2.25.094-6.594s-.019-4.887-.094-6.594c-.075-1.7-.35-2.869-.744-3.881a7.506 7.506 0 00-1.831-2.844A7.82 7.82 0 0026.482.843C25.463.449 24.301.174 22.601.099c-1.712-.081-2.256-.1-6.6-.1z"/><path d="M16 7.781c-4.537 0-8.219 3.681-8.219 8.219s3.681 8.219 8.219 8.219 8.219-3.681 8.219-8.219A8.221 8.221 0 0016 7.781zm0 13.55a5.331 5.331 0 110-10.663 5.331 5.331 0 010 10.663zM26.462 7.456a1.919 1.919 0 11-3.838 0 1.919 1.919 0 013.838 0z"/></symbol><symbol id="icon-whatsapp" viewBox="0 0 32 32"><path d="M27.281 4.65C24.287 1.65 20.306 0 16.062 0 7.324 0 .212 7.112.212 15.856c0 2.794.731 5.525 2.119 7.925L.081 32l8.406-2.206a15.858 15.858 0 007.575 1.931h.006c8.738 0 15.856-7.113 15.856-15.856 0-4.238-1.65-8.219-4.644-11.219zm-11.212 24.4a13.17 13.17 0 01-6.713-1.837l-.481-.288-4.987 1.306 1.331-4.863-.313-.5a13.086 13.086 0 01-2.019-7.012c0-7.269 5.912-13.181 13.188-13.181 3.519 0 6.831 1.375 9.319 3.862a13.108 13.108 0 013.856 9.325c-.006 7.275-5.919 13.188-13.181 13.188zm7.225-9.875c-.394-.2-2.344-1.156-2.706-1.288s-.625-.2-.894.2c-.262.394-1.025 1.288-1.256 1.556-.231.262-.462.3-.856.1s-1.675-.619-3.188-1.969c-1.175-1.05-1.975-2.35-2.206-2.744s-.025-.613.175-.806c.181-.175.394-.463.594-.694s.262-.394.394-.662c.131-.262.069-.494-.031-.694s-.894-2.15-1.219-2.944c-.319-.775-.65-.669-.894-.681-.231-.012-.494-.012-.756-.012s-.694.1-1.056.494c-.363.394-1.387 1.356-1.387 3.306s1.419 3.831 1.619 4.1c.2.262 2.794 4.269 6.769 5.981.944.406 1.681.65 2.256.837.95.3 1.813.256 2.494.156.762-.113 2.344-.956 2.675-1.881s.331-1.719.231-1.881c-.094-.175-.356-.275-.756-.475z"/></symbol></defs></svg>